<svg xmlns="http://www.w3.org/2000/svg" width="200" height="40" viewBox="0,0,200,40"><path fill="#444" d="M139.45 25.45L139.54 25.54L139.51 25.51Q135.95 31.77 132.53 35.73L132.49 35.69L132.54 35.75Q130.74 36.22 128.30 37.10L128.29 37.09L128.15 36.95Q133.05 31.34 137.80 22.92L137.84 22.96L137.92 23.04Q133.36 16.12 127.39 9.73L127.27 9.61L127.26 9.60Q130.15 10.78 132.43 11.27L132.51 11.35L132.56 11.40Q137.20 16.61 139.64 20.57L139.54 20.47L139.70 20.63Q142.02 16.02 145.94 11.60L146.03 11.70L146.02 11.68Q147.62 11.38 150.82 10.62L150.81 10.62L150.84 10.64Q144.72 17.05 141.25 22.98L141.37 23.10L141.26 23.00Q146.44 31.67 150.82 36.24L150.82 36.25L150.91 36.33Q148.25 35.46 146.16 35.23L146.24 35.32L146.17 35.25Q143.28 32.16 139.35 25.35ZM146.07 35.57L146.01 35.51L146.17 35.66Q146.37 35.60 146.83 35.72L146.89 35.78L146.77 35.66Q147.63 36.48 149.15 38.07L149.14 38.07L149.23 38.16Q152.45 38.82 155.49 40.19L155.59 40.29L155.46 40.16Q148.46 33.70 143.36 24.94L143.29 24.87L143.23 24.81Q146.99 18.17 152.89 11.32L152.95 11.38L152.92 11.36Q151.60 12.13 149.43 12.66L149.39 12.62L149.28 12.51Q150.29 11.73 152.04 9.94L152.06 9.96L151.89 9.79Q149.49 10.66 145.80 11.23L145.91 11.34L145.89 11.33Q142.42 15.09 139.83 19.39L139.82 19.38L139.95 19.51Q138.94 17.82 137.76 16.33L137.86 16.43L135.46 13.38L135.07 13.37L135.01 13.32Q135.00 13.46 134.77 13.38L134.83 13.44L134.80 13.41Q133.97 12.43 132.49 10.87L132.63 11.01L132.65 11.03Q128.67 9.98 126.08 8.61L126.15 8.68L126.13 8.66Q132.80 15.87 137.37 22.91L137.40 22.94L137.51 23.05Q132.91 31.12 127.16 37.71L127.19 37.74L127.29 37.84Q128.59 37.16 130.73 36.59L130.72 36.58L129.38 37.99L129.44 38.05Q129.48 38.09 128.15 39.42L128.14 39.41L128.16 39.43Q131.04 38.24 134.20 37.75L134.20 37.75L134.25 37.80Q138.16 33.18 140.75 28.42L140.72 28.39L140.82 28.49Q143.32 32.66 146.02 35.52Z"/><path fill="#333" d="M51.63 21.87L51.67 21.91L51.53 21.77Q53.43 22.04 55.26 22.04L55.14 21.91L55.26 22.04Q56.92 21.91 58.75 21.76L58.78 21.79L58.73 21.74Q58.68 22.45 58.68 23.17L58.69 23.18L58.65 24.47L58.65 24.47Q56.34 24.53 51.58 24.64L51.50 24.56L51.67 24.73Q51.59 30.59 50.44 35.57L50.39 35.52L50.50 35.63Q48.16 36.18 46.68 36.98L46.68 36.99L46.77 37.08Q49.00 30.17 48.73 23.05L48.90 23.22L48.81 23.13Q48.61 16.03 45.94 9.37L45.92 9.35L45.79 9.22Q49.64 11.93 54.40 12.16L54.32 12.08L54.39 12.14Q58.88 12.15 63.03 10.40L63.04 10.40L63.16 10.53Q62.94 11.41 62.71 12.21L62.68 12.18L62.21 13.80L62.11 13.70Q59.40 14.80 56.43 14.95L56.47 14.99L56.40 14.92Q53.58 15.18 50.72 14.46L50.72 14.46L50.71 14.45Q51.40 17.84 51.60 21.84ZM63.71 9.74L63.80 9.83L63.67 9.70Q59.13 11.90 54.26 11.60L54.35 11.68L54.35 11.69Q49.01 11.38 45.28 8.52L45.22 8.46L45.17 8.41Q48.19 15.50 48.50 23.12L48.35 22.98L48.38 23.00Q48.76 30.99 46.24 37.77L46.32 37.85L46.26 37.78Q46.96 37.42 48.33 36.77L48.18 36.62L48.34 36.78Q48.11 37.50 47.54 39.02L47.54 39.03L47.57 39.05Q49.75 37.85 52.64 37.35L52.76 37.47L52.67 37.38Q53.28 32.51 53.47 26.80L53.44 26.77L53.51 26.84Q55.35 26.85 57.18 26.85L57.15 26.82L57.17 26.85Q58.91 26.80 60.74 26.99L60.69 26.94L60.74 26.98Q60.66 26.07 60.66 25.15L60.70 25.20L60.61 23.21L60.55 23.14Q59.82 23.29 58.98 23.29L59.08 23.38L59.10 23.40Q58.97 22.40 59.04 21.37L59.18 21.50L59.16 21.48Q57.81 21.70 56.40 21.70L56.31 21.61L56.28 21.57Q54.94 21.64 53.57 21.61L53.53 21.56L53.43 19.33L53.53 19.43Q53.54 18.38 53.42 17.31L53.38 17.27L53.27 17.16Q54.23 17.20 55.22 17.20L55.37 17.35L55.24 17.23Q60.02 17.24 63.64 15.34L63.69 15.39L63.66 15.36Q64.15 13.53 65.07 10.91L65.12 10.97L65.15 10.99Q63.81 11.78 63.01 12.12L62.92 12.03L62.94 12.06Q63.34 11.42 63.83 9.86Z"/><path fill="#222" d="M25.45 24.26L25.30 24.12L25.38 24.19Q23.55 24.23 22.33 25.56L22.27 25.50L22.19 25.42Q21.16 26.94 21.01 28.85L20.82 28.66L20.90 28.73Q20.75 30.91 21.97 31.92L21.87 31.82L21.99 31.94Q23.08 32.82 25.21 32.74L25.29 32.82L25.22 32.75Q27.67 32.73 28.62 31.78L28.52 31.67L28.55 31.70Q29.68 30.36 29.56 28.53L29.53 28.49L29.39 28.36Q29.39 26.60 28.30 25.40L28.37 25.47L28.35 25.45Q27.23 24.22 25.41 24.22ZM25.34 14.75L25.29 14.70L25.37 14.78Q24.01 14.72 22.68 15.21L22.55 15.08L22.66 15.19Q21.30 15.93 21.53 17.80L21.60 17.86L21.59 17.85Q22.12 21.62 25.47 21.62L25.41 21.56L25.42 21.57Q26.99 21.77 27.98 20.62L27.85 20.49L27.94 20.58Q28.95 19.47 28.99 17.91L29.04 17.95L28.99 17.91Q28.96 16.05 28.24 15.44L28.25 15.46L28.23 15.43Q26.54 14.58 25.25 14.66ZM24.97 35.21L25.04 35.28L22.05 35.33L22.10 35.38Q20.56 35.36 19.23 34.49L19.13 34.39L19.17 34.43Q17.78 33.27 17.93 30.41L17.99 30.47L17.92 30.40Q18.41 23.58 22.02 22.59L22.01 22.57L22.10 22.66Q19.64 21.58 18.31 16.21L18.32 16.22L18.37 16.27Q18.03 14.86 18.11 14.06L18.08 14.04L18.10 14.05Q18.49 12.01 22.18 11.97L22.06 11.85L22.11 11.90Q26.32 11.81 27.76 12.00L27.79 12.03L27.84 12.07Q31.60 12.52 32.06 14.54L32.04 14.52L32.04 14.53Q32.20 15.18 32.20 15.56L32.16 15.52L32.25 15.61Q32.22 16.26 32.03 16.87L32.02 16.86L31.95 16.80Q31.35 21.03 28.42 22.55L28.51 22.64L28.45 22.58Q31.95 23.38 32.45 28.67L32.50 28.72L32.57 28.79Q32.45 28.83 32.49 30.12L32.55 30.18L32.50 30.14Q32.66 32.96 31.06 34.03L30.95 33.92L30.91 33.88Q29.58 34.79 25.01 35.25ZM27.31 37.59L27.40 37.67L30.63 37.63L30.66 37.66Q32.52 37.88 34.04 37.15L33.87 36.99L33.95 37.07Q35.04 36.29 35.12 34.43L35.12 34.43L35.22 34.53Q35.26 33.42 34.88 31.48L34.74 31.34L34.87 31.47Q33.85 26.73 31.76 24.86L31.80 24.90L31.66 24.58L31.49 24.33L31.23 23.95L31.33 24.05Q32.94 22.66 33.85 18.51L33.77 18.43L33.92 18.58Q33.74 18.01 33.82 17.18L33.81 17.17L33.97 17.33Q34.03 16.63 33.95 16.02L33.90 15.97L33.81 15.87Q33.79 14.56 32.61 14.07L32.53 13.98L32.58 14.00L32.39 13.88L32.41 13.90Q32.10 13.14 30.92 12.34L31.01 12.43L30.93 12.31L31.01 12.39Q29.06 11.73 24.99 11.54L24.99 11.54L24.94 11.49Q23.49 11.50 22.12 11.61L22.00 11.49L22.02 11.51Q21.28 11.60 19.98 11.75L20.00 11.77L20.02 11.79Q17.97 12.06 17.74 13.70L17.84 13.80L17.78 13.74Q17.79 14.29 17.83 15.09L17.73 14.98L17.82 15.07Q17.80 15.48 18.38 17.84L18.40 17.86L18.50 17.96Q19.23 21.13 20.98 22.46L20.96 22.44L20.99 22.47L21.17 22.65Q18.21 23.76 17.68 28.94L17.72 28.98L17.66 28.93Q17.66 31.32 17.66 32.23L17.51 32.08L17.50 32.07Q17.64 33.93 18.82 34.84L18.88 34.90L18.80 34.82Q18.85 34.84 19.12 35.03L19.17 35.08L19.22 35.13Q20.14 37.30 27.26 37.53ZM27.03 26.56L27.10 26.64L26.95 26.49Q28.00 26.55 28.88 27.01L28.73 26.86L28.85 26.98Q29.16 27.89 29.12 28.43L29.13 28.44L29.18 28.49Q29.12 28.69 29.12 29.00L29.21 29.09L29.27 29.15Q29.08 31.32 26.80 32.16L26.84 32.20L26.87 32.24Q26.16 32.63 25.36 32.51L25.26 32.41L25.34 32.49Q24.12 32.49 22.98 32.04L22.99 32.04L23.05 32.10Q22.83 31.51 22.91 30.52L22.85 30.46L22.78 30.39Q22.94 28.80 24.14 27.58L24.23 27.67L24.16 27.60Q25.47 26.49 27.07 26.60ZM27.30 17.13L27.26 17.09L27.33 17.16Q27.94 16.86 28.47 17.01L28.48 17.02L28.58 17.92L28.67 18.00Q28.56 19.30 27.64 20.31L27.68 20.35L27.67 20.34Q26.72 21.30 25.34 21.11L25.44 21.21L25.39 21.16Q24.34 21.10 23.92 20.87L23.88 20.83L24.00 20.95Q23.88 20.60 23.76 19.91L23.88 20.03L23.74 19.89Q23.59 18.60 24.81 17.76L24.76 17.71L24.68 17.64Q25.89 17.09 27.30 17.13Z"/><path fill="#333" d="M102.11 9.29L102.05 9.23L102.07 9.25Q105.92 11.85 110.68 12.07L110.63 12.02L110.72 12.12Q115.35 12.29 119.61 10.54L119.65 10.58L119.58 10.50Q119.31 11.04 118.55 13.82L118.61 13.87L118.51 13.78Q115.88 14.91 112.91 15.07L112.95 15.11L112.83 14.99Q109.90 15.18 107.01 14.46L106.94 14.39L107.05 14.50Q107.71 18.08 107.90 21.74L107.95 21.79L107.97 21.81Q109.97 22.02 111.57 21.99L111.56 21.98L111.56 21.98Q112.75 21.95 115.15 21.84L115.08 21.77L115.14 21.83Q115.05 22.42 115.05 23.11L114.97 23.03L115.10 24.48L115.02 24.41Q112.64 24.43 107.85 24.51L107.94 24.60L107.87 24.53Q107.88 28.65 107.31 32.65L107.33 32.67L107.31 32.65Q109.88 31.94 112.62 32.06L112.74 32.18L112.68 32.12Q115.32 32.13 117.91 32.97L117.97 33.03L117.99 33.05Q118.10 33.89 118.37 34.65L118.24 34.52L118.72 36.07L118.68 36.02Q115.61 34.86 112.18 34.86L112.20 34.87L112.19 34.87Q107.30 34.85 103.04 37.10L103.06 37.12L102.99 37.04Q105.37 30.29 105.10 23.17L105.03 23.10L105.03 23.10Q104.89 16.06 102.22 9.40ZM102.51 37.79L102.42 37.69L102.52 37.80Q103.81 37.11 104.58 36.77L104.51 36.70L104.57 36.76Q104.37 37.52 103.80 39.04L103.74 38.98L103.80 39.04Q108.30 37.02 113.36 37.29L113.34 37.27L113.41 37.34Q118.60 37.65 122.59 40.36L122.51 40.28L122.54 40.30Q121.30 37.69 120.61 35.75L120.59 35.73L120.72 35.85Q119.63 35.15 118.64 34.81L118.74 34.91L118.77 34.93Q118.38 33.56 118.23 32.76L118.15 32.68L118.20 32.72Q115.15 31.78 111.99 31.78L111.88 31.66L111.93 31.71Q110.86 31.78 109.72 31.90L109.55 31.73L109.67 31.85Q109.64 30.45 109.68 29.23L109.84 29.39L109.89 26.86L109.92 26.88Q111.74 26.80 113.53 26.84L113.46 26.77L113.49 26.80Q115.30 26.82 117.09 26.97L117.02 26.90L117.11 26.99Q117.05 26.06 117.05 25.11L116.95 25.00L116.94 23.09L116.29 23.32L116.29 23.32Q115.73 23.25 115.27 23.25L115.27 23.25L115.26 23.24Q115.40 22.70 115.55 21.40L115.52 21.37L115.46 21.31Q113.79 21.46 112.61 21.50L112.66 21.56L112.63 21.52Q111.78 21.63 109.95 21.55L110.00 21.60L110.02 21.62Q109.76 20.03 109.57 17.21L109.60 17.24L109.61 17.25Q110.79 17.51 111.78 17.51L111.76 17.50L111.73 17.46Q116.39 17.41 120.08 15.50L120.06 15.48L120.09 15.50Q120.66 13.14 121.53 10.93L121.59 10.99L121.54 10.94Q120.18 11.75 119.34 12.09L119.38 12.13L119.40 12.15Q119.60 11.29 120.06 9.73L120.15 9.82L120.14 9.81Q115.54 11.99 110.67 11.68L110.69 11.70L110.70 11.72Q105.22 11.22 101.38 8.37L101.55 8.54L101.57 8.56Q104.40 15.46 104.70 23.08L104.61 22.98L104.61 22.98Q105.01 30.99 102.49 37.77Z"/><path d="M4 13 C104 15,117 17,190 15" stroke="#888" fill="none"/><path fill="#111" d="M164.30 24.72L164.32 24.73L164.19 24.60Q164.17 28.84 163.44 32.99L163.48 33.03L163.57 33.12Q165.85 32.58 168.93 32.47L168.86 32.39L168.79 32.32Q170.15 32.54 171.22 31.53L171.20 31.51L171.28 31.60Q172.30 30.54 172.30 29.21L172.36 29.27L172.34 29.25Q172.27 28.88 172.23 28.61L172.23 28.61L172.34 28.71Q172.09 25.69 169.85 24.85L169.88 24.88L169.89 24.90Q169.09 24.56 168.41 24.63L168.51 24.73L168.44 24.67Q167.40 24.62 166.37 24.65L166.27 24.55L166.35 24.63Q165.33 24.72 164.31 24.72ZM163.03 14.23L163.00 14.19L162.95 14.15Q163.86 17.50 164.13 21.87L164.18 21.93L164.15 21.90Q165.58 22.00 168.25 22.04L168.21 22.00L168.32 22.11Q171.29 22.19 171.63 18.65L171.45 18.46L171.47 18.48Q171.67 16.55 170.26 15.71L170.27 15.72L170.33 15.78Q169.32 15.15 164.90 14.50L165.05 14.65L165.07 14.67Q163.95 14.47 163.04 14.24ZM159.27 37.01L159.37 37.10L159.33 37.06Q161.87 30.47 161.61 23.08L161.54 23.02L161.57 23.05Q161.17 15.65 158.24 9.18L158.31 9.24L158.25 9.18Q162.04 11.72 168.27 11.97L168.33 12.03L168.33 12.03Q174.59 12.32 174.94 15.21L174.84 15.12L175.00 15.27Q175.20 17.91 173.79 20.58L173.83 20.61L173.82 20.61Q173.16 22.19 171.56 22.88L171.50 22.81L171.60 22.91Q175.10 23.44 175.33 28.81L175.35 28.83L175.31 28.80Q175.40 29.91 175.32 31.32L175.48 31.47L175.38 31.37Q175.41 32.78 174.48 33.71L174.36 33.59L174.38 33.61Q173.51 34.60 172.17 34.76L172.23 34.82L172.24 34.82Q170.67 34.81 169.60 34.81L169.56 34.77L169.56 34.77Q163.83 34.75 159.30 37.03ZM172.23 37.48L172.10 37.34L172.10 37.35Q173.17 37.54 175.04 37.66L175.04 37.66L174.95 37.57Q176.36 37.61 177.47 36.74L177.50 36.77L177.41 36.68Q178.22 35.78 178.11 34.22L178.12 34.23L178.07 34.18Q178.04 33.27 177.32 29.81L177.40 29.90L177.33 29.82Q176.66 26.60 174.79 25.12L174.73 25.05L174.49 24.39L174.42 24.33Q176.09 22.92 176.67 19.15L176.62 19.10L176.66 19.14Q176.83 18.02 176.76 16.61L176.73 16.58L176.76 16.61Q176.68 15.28 175.57 14.44L175.59 14.45L175.51 14.37Q175.14 14.12 175.03 14.08L175.22 14.27L175.11 14.16Q174.93 13.71 174.09 12.91L174.02 12.85L174.00 12.82Q172.45 11.73 168.22 11.54L168.39 11.71L168.34 11.66Q161.61 11.29 157.62 8.40L157.69 8.47L157.64 8.42Q160.97 15.48 161.27 23.01L161.29 23.03L161.32 23.06Q161.62 30.86 158.80 37.79L158.73 37.72L160.77 36.76L160.83 36.81Q160.44 37.94 159.94 39.08L159.97 39.11L159.91 39.05Q164.19 37.16 169.21 37.16L169.38 37.33L169.34 37.29Q170.66 37.21 172.11 37.36ZM170.00 26.84L170.08 26.91L170.04 26.88Q170.77 26.81 171.69 27.26L171.57 27.15L171.60 27.18Q171.68 27.49 171.83 28.55L171.95 28.67L171.96 28.68Q172.20 30.10 171.27 31.15L171.22 31.10L171.14 31.02Q170.25 32.11 168.84 31.99L168.85 32.00L167.30 32.05L167.28 32.03Q166.58 32.13 165.86 32.25L165.93 32.32L165.90 32.29Q166.24 30.50 166.32 27.03L166.17 26.89L166.31 27.03Q166.85 26.84 168.11 26.81L168.16 26.86L168.23 26.93Q169.51 26.91 170.12 26.95ZM168.90 17.16L168.99 17.26L169.30 17.19L169.43 17.32Q169.54 17.20 169.73 17.24L169.73 17.24L170.08 17.20L170.48 17.42L171.20 17.60L171.09 17.49Q171.21 17.77 171.21 18.07L171.24 18.10L171.29 18.68L171.11 18.50Q171.15 19.80 170.27 20.73L170.27 20.73L170.39 20.85Q169.44 21.70 168.22 21.70L168.26 21.74L168.21 21.69Q167.14 21.65 167.14 21.65L167.20 21.71L167.27 21.78Q165.83 21.64 166.17 21.64L166.21 21.67L166.19 21.65Q166.18 20.15 165.87 17.11L165.89 17.12L165.82 17.06Q167.51 17.31 169.04 17.31Z"/><path fill="#222" d="M83.56 35.11L83.48 35.03L81.37 35.21L81.50 35.34Q80.96 35.25 79.98 35.30L80.06 35.38L80.12 35.43Q79.00 35.35 78.51 35.35L78.58 35.42L78.55 35.39Q76.91 35.39 75.88 34.55L75.95 34.62L75.87 34.54Q76.72 33.49 78.36 31.35L78.30 31.30L78.30 31.30Q79.62 32.93 81.83 32.70L81.81 32.67L81.75 32.62Q82.74 32.57 83.38 31.93L83.46 32.00L83.41 31.96Q84.01 31.26 83.90 30.39L83.95 30.43L83.97 30.46Q83.86 25.86 83.94 21.29L83.90 21.25L83.95 21.30Q83.81 16.52 84.34 11.91L84.47 12.04L84.36 11.93Q86.41 11.85 88.54 10.82L88.44 10.71L88.56 10.84Q86.64 17.52 86.64 24.75L86.63 24.74L86.67 24.79Q86.57 28.22 87.03 31.72L87.09 31.79L87.05 31.75Q87.09 32.06 87.09 32.40L87.27 32.58L87.15 32.46Q87.20 33.08 86.97 33.61L86.85 33.49L86.93 33.57Q86.46 34.93 83.64 35.19ZM88.42 37.88L88.51 37.96L88.93 38.05L89.14 37.84L89.31 37.63L89.43 37.74Q89.69 37.43 89.77 37.32L89.78 37.34L89.73 37.28Q89.87 36.05 89.60 35.06L89.74 35.20L89.65 35.11Q88.30 29.30 88.56 22.94L88.72 23.11L88.68 23.06Q88.95 16.98 90.74 11.07L90.55 10.88L90.57 10.91Q89.70 11.56 88.45 12.28L88.52 12.35L88.43 12.27Q88.75 11.64 89.17 10.12L89.19 10.13L89.12 10.06Q86.56 11.35 83.89 11.65L83.88 11.64L84.03 11.79Q83.55 16.06 83.47 21.01L83.44 20.98L83.53 21.07Q83.40 26.92 83.48 30.35L83.50 30.37L83.44 30.31Q83.54 32.12 81.78 32.27L81.89 32.37L81.87 32.35Q80.09 32.40 78.41 30.76L78.52 30.87L78.46 30.81Q76.36 33.27 75.40 34.84L75.43 34.86L75.49 34.92Q76.03 35.46 77.06 35.69L77.02 35.65L77.12 35.76Q77.07 35.93 76.80 36.16L76.67 36.03L76.76 36.12Q78.23 37.09 80.21 37.36L80.25 37.40L80.08 37.23Q80.63 37.44 83.92 37.74L83.75 37.57L83.82 37.63Q87.23 38.06 88.60 38.06Z"/><path d="M5 7 C103 12,115 23,195 6" stroke="#444" fill="none"/></svg>